HIERARCHY
ROOT Hips
{
	OFFSET 0.00000 0.00000 0.00000
	CHANNELS 6 Xposition Yposition Zposition Zrotation Yrotation Xrotation 
	JOINT LHipJoint
	{
		OFFSET 0 0 0
		CHANNELS 3 Zrotation Yrotation Xrotation
		JOINT LeftHip
		{
			OFFSET 1.76014 -1.80163 0.38499
			CHANNELS 3 Zrotation Yrotation Xrotation
			JOINT LeftKnee
			{
				OFFSET 2.46817 -6.78126 0.00000
				CHANNELS 3 Zrotation Yrotation Xrotation
				JOINT LeftAnkle
				{
					OFFSET 2.79348 -7.67503 0.00000
					CHANNELS 3 Zrotation Yrotation Xrotation
					JOINT LeftToe
					{
						OFFSET 0.09421 -0.25885 1.91403
						CHANNELS 3 Zrotation Yrotation Xrotation
						End Site
						{
							OFFSET 0.00000 -0.00000 0.97975
						}
					}
				}
			}
		}
	}
	JOINT RHipJoint
	{
		OFFSET 0 0 0
		CHANNELS 3 Zrotation Yrotation Xrotation
		JOINT RightHip
		{
			OFFSET -1.77926 -1.80163 0.38499
			CHANNELS 3 Zrotation Yrotation Xrotation
			JOINT RightKnee
			{
				OFFSET -2.51996 -6.92353 0.00000
				CHANNELS 3 Zrotation Yrotation Xrotation
				JOINT RightAnkle
				{
					OFFSET -2.76109 -7.58603 0.00000
					CHANNELS 3 Zrotation Yrotation Xrotation
					JOINT RightToe
					{
						OFFSET -0.08067 -0.22163 1.86812
						CHANNELS 3 Zrotation Yrotation Xrotation
						End Site
						{
							OFFSET -0.00000 -0.00000 0.95558
						}
					}
				}
			}
		}
	}
	JOINT lowerback
	{
		OFFSET 0 0 0
		CHANNELS 3 Zrotation Yrotation Xrotation
		JOINT Chest
		{
			OFFSET 0.05537 1.92033 -0.03713
			CHANNELS 3 Zrotation Yrotation Xrotation
			JOINT Chest2
			{
				OFFSET 0.04452 1.90073 0.10860
				CHANNELS 3 Zrotation Yrotation Xrotation
				JOINT lowerneck
				{
					OFFSET 0 0 0
					CHANNELS 3 Zrotation Yrotation Xrotation
					JOINT Neck
					{
						OFFSET 0.00903 1.74649 0.02074
						CHANNELS 3 Zrotation Yrotation Xrotation
						JOINT Head
						{
							OFFSET -0.08608 1.67844 -0.12081
							CHANNELS 3 Zrotation Yrotation Xrotation
							End Site
							{
								OFFSET -0.03521 1.83380 -0.05059
							}
						}
					}
				}
				JOINT LeftCollar
				{
					OFFSET 0 0 0
					CHANNELS 3 Zrotation Yrotation Xrotation
					JOINT LeftShoulder
					{
						OFFSET 3.28197 0.84325 -0.19106
CHANNELS 3 Zrotation Xrotation Yrotation
						JOINT LeftElbow
						{
OFFSET 0 -5.243180 -0.000000
CHANNELS 3 Zrotation Xrotation Yrotation
							JOINT LeftWrist
							{
OFFSET 0 -2.989990 0.000000
CHANNELS 3 Zrotation Xrotation Yrotation
								JOINT lhand
								{
									OFFSET 0 0 0
CHANNELS 3 Zrotation Xrotation Yrotation
									JOINT LFingers
									{
OFFSET 0 -0.726740 0.000000
CHANNELS 3 Zrotation Xrotation Yrotation
										End Site
										{
OFFSET 0 -0.585920 0.000000
										}
									}
								}
								JOINT LThumb
								{
OFFSET 0 0.000000 0.000000
CHANNELS 3 Zrotation Xrotation Yrotation
									End Site
									{
OFFSET 0 -0.594870 0.594870
									}
								}
							}
						}
					}
				}
				JOINT RightCollar
				{
					OFFSET 0 0 0
					CHANNELS 3 Zrotation Yrotation Xrotation
					JOINT RightShoulder
					{
						OFFSET -3.30963 0.78377 0.14264
CHANNELS 3 Zrotation Xrotation Yrotation
						JOINT RightElbow
						{
OFFSET 0 -5.370450 0.000000
CHANNELS 3 Zrotation Xrotation Yrotation
							JOINT RightWrist
							{
OFFSET 0 -2.927920 0.000000
CHANNELS 3 Zrotation Xrotation Yrotation
								JOINT rhand
								{
									OFFSET 0 0 0
CHANNELS 3 Zrotation Xrotation Yrotation
									JOINT RFingers
									{
OFFSET 0 -0.784500 0.000000
CHANNELS 3 Zrotation Xrotation Yrotation
										End Site
										{
OFFSET 0 -0.632480 0.000000
										}
									}
								}
								JOINT RThumb
								{
OFFSET 0 0.000000 0.000000
CHANNELS 3 Zrotation Xrotation Yrotation
									End Site
									{
OFFSET 0 -0.642140 0.642140
									}
								}
							}
						}
					}
				}
			}
		}
	}
}
MOTION
Frames: 8
Frame Time: 0.008333333333333333
0.205729 18.243770 0.370001 -3.213323 -2.963124 11.052379 0.000000 0.000000 0.000000 -13.853269 -22.254476 -9.325455 1.201640 6.954961 19.581883 -0.853432 17.917460 -15.161639 0.393510 -4.028049 -11.155568 0.000000 0.000000 0.000000 21.221141 17.137603 -5.235615 -0.169889 -2.655493 7.320952 0.741828 -15.276091 -8.556021 -0.868107 5.940851 -16.612894 2.020892 -0.303023 -3.427982 2.853609 -0.366331 -4.971659 1.806073 -0.198656 -3.192547 4.135323 0.464030 -6.669440 -7.287702 0.974919 10.312468 -2.863951 0.241009 4.223226 0.000000 0.000000 0.000000 1.068231 6.121533 -26.132611 10.300911 -17.208816 1.562822 7.547094 26.662227 -18.582801 0.000000 0.000000 0.000000 -7.125000 0.000000 0.000000 -19.709884 47.693794 1.360460 0.000000 0.000000 0.000000 -4.985734 8.876443 15.035676 -15.368029 -24.656274 -3.377973 -5.663568 31.142522 -12.447195 0.000000 0.000000 0.000000 7.125000 0.000000 0.000000 14.911853 17.710543 10.014887
0.199408 18.241830 0.372231 -3.205669 -2.919720 11.125502 0.000000 0.000000 0.000000 -13.794615 -22.264643 -9.397921 1.195920 6.939059 19.534877 -0.838440 17.832931 -15.216860 0.365706 -3.884545 -10.752169 0.000000 0.000000 0.000000 21.220034 17.130507 -5.320008 -0.171539 -2.667855 7.355305 0.729983 -15.177320 -8.613031 -0.874503 5.961796 -16.673581 2.003507 -0.270797 -3.572190 2.840437 -0.331581 -4.895316 1.800470 -0.180405 -3.032573 4.147215 0.463176 -6.636215 -7.428955 0.982558 10.187681 -2.908165 0.239758 4.180749 0.000000 0.000000 0.000000 0.670429 6.038050 -25.287020 10.077718 -16.861068 1.497379 7.632881 27.182511 -17.506883 0.000000 0.000000 0.000000 -7.125000 0.000000 0.000000 -19.199276 46.687984 0.829621 0.000000 0.000000 0.000000 -4.649637 8.867984 14.208146 -14.758103 -23.808085 -3.127622 -5.945992 32.016270 -12.464892 0.000000 0.000000 0.000000 7.125000 0.000000 0.000000 14.718751 17.682132 9.885429
0.193149 18.244251 0.374049 -2.958629 -2.953608 11.143389 0.000000 0.000000 0.000000 -14.061880 -22.162042 -9.376487 1.181192 6.897529 19.412187 -0.859236 17.890884 -14.971829 0.392915 -4.024069 -11.144586 0.000000 0.000000 0.000000 20.953308 17.211410 -5.577775 -0.193107 -2.829896 7.805577 0.703048 -14.996706 -9.001366 -0.813991 5.756575 -16.079966 1.748454 -0.242662 -3.666899 2.767254 -0.298412 -4.800302 1.866318 -0.156447 -2.879476 4.195090 0.443143 -6.695212 -7.481440 0.954654 10.191782 -2.934079 0.223846 4.190585 0.000000 0.000000 0.000000 0.605884 5.787312 -26.236858 10.188231 -17.033527 1.529674 6.893609 26.723488 -17.517415 0.000000 0.000000 0.000000 -7.125000 0.000000 0.000000 -19.868097 46.602886 0.817577 0.000000 0.000000 0.000000 -4.422511 8.683613 13.729783 -14.337688 -23.215441 -2.959956 -5.571253 33.137441 -12.351138 0.000000 0.000000 0.000000 7.125000 0.000000 0.000000 14.981149 17.807312 10.031645
0.186179 18.242348 0.377072 -3.009171 -2.940037 11.205775 0.000000 0.000000 0.000000 -13.942006 -22.103606 -9.484154 1.181869 6.899528 19.418172 -0.839159 17.773803 -15.038021 0.391580 -4.018230 -11.127883 0.000000 0.000000 0.000000 21.025830 17.261406 -5.692659 -0.199638 -2.876929 7.936403 0.704600 -15.004783 -8.964189 -0.842678 5.855261 -16.365076 1.793262 -0.241017 -3.764311 2.798695 -0.300641 -4.777292 1.872758 -0.158321 -2.801126 4.212398 0.505758 -6.739423 -7.354462 1.031254 10.361148 -2.894842 0.266382 4.253656 0.000000 0.000000 0.000000 0.762684 5.627805 -28.513906 10.619920 -17.703338 1.658502 6.039150 25.267883 -18.130289 0.000000 0.000000 0.000000 -7.125000 0.000000 0.000000 -20.884695 47.067170 1.112364 0.000000 0.000000 0.000000 -4.288794 8.527599 14.138105 -14.169397 -22.976369 -2.893872 -5.493303 33.650409 -12.332370 0.000000 0.000000 0.000000 7.125000 0.000000 0.000000 15.035413 17.828482 10.063396
0.178750 18.240855 0.375518 -2.934913 -2.840758 11.336590 0.000000 0.000000 0.000000 -13.909074 -22.141588 -9.712145 1.185677 6.910173 19.449589 -0.807246 17.559921 -15.071170 0.352840 -3.815773 -10.558962 0.000000 0.000000 0.000000 20.941934 17.249872 -5.966091 -0.209141 -2.944415 8.123972 0.695850 -14.948427 -9.095806 -0.820226 5.778647 -16.143556 1.762897 -0.268298 -3.753392 2.788346 -0.332432 -4.897913 1.880091 -0.173638 -2.931801 4.391604 0.461506 -6.522625 -7.439423 0.969976 10.421629 -2.954524 0.241989 4.232534 0.000000 0.000000 0.000000 1.057249 5.551633 -31.279611 11.320543 -18.777793 1.877844 6.244466 23.575281 -18.417488 0.000000 0.000000 0.000000 -7.125000 0.000000 0.000000 -20.821114 47.362418 1.268660 0.000000 0.000000 0.000000 -4.206137 8.500328 15.185864 -14.376596 -23.270443 -2.975283 -5.816835 33.008301 -12.678696 0.000000 0.000000 0.000000 7.125000 0.000000 0.000000 14.792422 17.479640 10.006778
0.174669 18.239586 0.380822 -3.040089 -2.871167 11.332740 0.000000 0.000000 0.000000 -13.787044 -22.119367 -9.779829 1.207322 6.970806 19.628917 -0.819867 17.637369 -15.038125 0.375205 -3.934106 -10.891364 0.000000 0.000000 0.000000 21.076855 17.267617 -5.839445 -0.200917 -2.886356 7.962573 0.711489 -15.060427 -8.923421 -0.852484 5.888177 -16.460369 1.927779 -0.253104 -3.685604 2.856717 -0.309793 -4.924242 1.859354 -0.166598 -2.998775 4.234784 0.428167 -6.374992 -7.319585 0.927006 10.311860 -2.892391 0.225161 4.170826 0.000000 0.000000 0.000000 1.333908 5.303586 -33.877996 12.172195 -20.062398 2.161032 6.991326 22.145441 -17.775596 0.000000 0.000000 0.000000 -7.125000 0.000000 0.000000 -19.883254 46.858785 0.948530 0.000000 0.000000 0.000000 -4.309968 8.439496 16.955223 -15.029070 -24.186560 -3.237870 -5.515389 31.646257 -12.430910 0.000000 0.000000 0.000000 7.125000 0.000000 0.000000 15.013539 17.732068 10.080801
0.170500 18.241800 0.388741 -3.130325 -2.901643 11.267260 0.000000 0.000000 0.000000 -13.729787 -21.995830 -9.724256 1.215429 6.993152 19.695184 -0.815996 17.607622 -15.032095 0.405249 -4.086524 -11.320153 0.000000 0.000000 0.000000 21.216748 17.259042 -5.648866 -0.192962 -2.828826 7.802457 0.726224 -15.164933 -8.747663 -0.964303 6.252243 -17.518189 2.117846 -0.252094 -3.588978 2.891084 -0.306235 -4.934271 1.789186 -0.170679 -3.064852 4.166787 0.443333 -6.249050 -7.180372 0.941563 10.289735 -2.836767 0.239742 4.143157 0.000000 0.000000 0.000000 1.596067 5.045820 -36.174034 12.933824 -21.190174 2.429336 7.182694 20.840832 -17.629068 0.000000 0.000000 0.000000 -7.125000 0.000000 0.000000 -19.652571 46.745359 0.879628 0.000000 0.000000 0.000000 -4.436549 8.314275 18.618848 -15.794491 -25.241178 -3.557908 -5.359246 30.294433 -12.352937 0.000000 0.000000 0.000000 7.125000 0.000000 0.000000 15.125097 17.813601 10.132999
0.164497 18.240163 0.398064 -3.062529 -2.920829 11.240732 0.000000 0.000000 0.000000 -13.811475 -22.012911 -9.596355 1.207070 6.970065 19.626748 -0.802484 17.567241 -15.183470 0.351733 -3.809881 -10.542456 0.000000 0.000000 0.000000 21.171397 17.272000 -5.648233 -0.198775 -2.871031 7.919954 0.725215 -15.164122 -8.799220 -0.963307 6.248914 -17.508411 2.032058 -0.298208 -3.658739 2.919422 -0.369930 -4.910113 1.865221 -0.199038 -2.998809 4.105352 0.494216 -6.265783 -7.046118 1.008077 10.419089 -2.782519 0.275534 4.188533 0.000000 0.000000 0.000000 1.853981 4.684320 -37.998874 13.587751 -22.142252 2.670770 7.167314 19.601798 -17.755108 0.000000 0.000000 0.000000 -7.125000 0.000000 0.000000 -19.716535 46.862332 0.941723 0.000000 0.000000 0.000000 -4.575577 8.152320 19.843573 -16.421653 -26.089027 -3.829553 -5.790858 28.808540 -12.782066 0.000000 0.000000 0.000000 7.125000 0.000000 0.000000 14.803303 17.380441 10.048165
